<svg width="867" height="530" viewBox="0 0 867 530" fill="none" xmlns="http://www.w3.org/2000/svg">
<g filter="url(#filter0_d_101_222)">
<path d="M87 13C87 20.1797 80.0604 26 71.5 26C62.9396 26 56 20.1797 56 13C56 5.8203 62.9396 0 71.5 0C80.0604 0 87 5.8203 87 13Z" fill="#328CC1"/>
<path d="M35 13C35 20.1797 28.0604 26 19.5 26C10.9396 26 4 20.1797 4 13C4 5.8203 10.9396 0 19.5 0C28.0604 0 35 5.8203 35 13Z" fill="#D98310"/>
<path d="M35 59C35 66.1797 28.0604 72 19.5 72C10.9396 72 4 66.1797 4 59C4 51.8203 10.9396 46 19.5 46C28.0604 46 35 51.8203 35 59Z" fill="#328CC1"/>
<path d="M87 59C87 66.1797 80.0604 72 71.5 72C62.9396 72 56 66.1797 56 59C56 51.8203 62.9396 46 71.5 46C80.0604 46 87 51.8203 87 59Z" fill="#D98310"/>
<path d="M35 105C35 112.18 28.0604 118 19.5 118C10.9396 118 4 112.18 4 105C4 97.8203 10.9396 92 19.5 92C28.0604 92 35 97.8203 35 105Z" fill="#328CC1"/>
<path d="M87 105C87 112.18 80.0604 118 71.5 118C62.9396 118 56 112.18 56 105C56 97.8203 62.9396 92 71.5 92C80.0604 92 87 97.8203 87 105Z" fill="#328CC1"/>
<path d="M139 13C139 20.1797 132.06 26 123.5 26C114.94 26 108 20.1797 108 13C108 5.8203 114.94 0 123.5 0C132.06 0 139 5.8203 139 13Z" fill="#328CC1"/>
<path d="M243 13C243 20.1797 236.06 26 227.5 26C218.94 26 212 20.1797 212 13C212 5.8203 218.94 0 227.5 0C236.06 0 243 5.8203 243 13Z" fill="#328CC1"/>
<path d="M191 13C191 20.1797 184.06 26 175.5 26C166.94 26 160 20.1797 160 13C160 5.8203 166.94 0 175.5 0C184.06 0 191 5.8203 191 13Z" fill="#328CC1"/>
<path d="M191 59C191 66.1797 184.06 72 175.5 72C166.94 72 160 66.1797 160 59C160 51.8203 166.94 46 175.5 46C184.06 46 191 51.8203 191 59Z" fill="#328CC1"/>
<path d="M243 59C243 66.1797 236.06 72 227.5 72C218.94 72 212 66.1797 212 59C212 51.8203 218.94 46 227.5 46C236.06 46 243 51.8203 243 59Z" fill="#328CC1"/>
<path d="M139 59C139 66.1797 132.06 72 123.5 72C114.94 72 108 66.1797 108 59C108 51.8203 114.94 46 123.5 46C132.06 46 139 51.8203 139 59Z" fill="#328CC1"/>
<path d="M139 105C139 112.18 132.06 118 123.5 118C114.94 118 108 112.18 108 105C108 97.8203 114.94 92 123.5 92C132.06 92 139 97.8203 139 105Z" fill="#D98310"/>
<path d="M191 105C191 112.18 184.06 118 175.5 118C166.94 118 160 112.18 160 105C160 97.8203 166.94 92 175.5 92C184.06 92 191 97.8203 191 105Z" fill="#328CC1"/>
<path d="M243 105C243 112.18 236.06 118 227.5 118C218.94 118 212 112.18 212 105C212 97.8203 218.94 92 227.5 92C236.06 92 243 97.8203 243 105Z" fill="#328CC1"/>
<path d="M295 13C295 20.1797 288.06 26 279.5 26C270.94 26 264 20.1797 264 13C264 5.8203 270.94 0 279.5 0C288.06 0 295 5.8203 295 13Z" fill="#328CC1"/>
<path d="M399 13C399 20.1797 392.06 26 383.5 26C374.94 26 368 20.1797 368 13C368 5.8203 374.94 0 383.5 0C392.06 0 399 5.8203 399 13Z" fill="#328CC1"/>
<path d="M347 13C347 20.1797 340.06 26 331.5 26C322.94 26 316 20.1797 316 13C316 5.8203 322.94 0 331.5 0C340.06 0 347 5.8203 347 13Z" fill="#328CC1"/>
<path d="M347 59C347 66.1797 340.06 72 331.5 72C322.94 72 316 66.1797 316 59C316 51.8203 322.94 46 331.5 46C340.06 46 347 51.8203 347 59Z" fill="#328CC1"/>
<path d="M399 59C399 66.1797 392.06 72 383.5 72C374.94 72 368 66.1797 368 59C368 51.8203 374.94 46 383.5 46C392.06 46 399 51.8203 399 59Z" fill="#328CC1"/>
<path d="M295 59C295 66.1797 288.06 72 279.5 72C270.94 72 264 66.1797 264 59C264 51.8203 270.94 46 279.5 46C288.06 46 295 51.8203 295 59Z" fill="#328CC1"/>
<path d="M295 105C295 112.18 288.06 118 279.5 118C270.94 118 264 112.18 264 105C264 97.8203 270.94 92 279.5 92C288.06 92 295 97.8203 295 105Z" fill="#328CC1"/>
<path d="M347 105C347 112.18 340.06 118 331.5 118C322.94 118 316 112.18 316 105C316 97.8203 322.94 92 331.5 92C340.06 92 347 97.8203 347 105Z" fill="#328CC1"/>
<path d="M399 105C399 112.18 392.06 118 383.5 118C374.94 118 368 112.18 368 105C368 97.8203 374.94 92 383.5 92C392.06 92 399 97.8203 399 105Z" fill="#328CC1"/>
<path d="M87 151C87 158.18 80.0604 164 71.5 164C62.9396 164 56 158.18 56 151C56 143.82 62.9396 138 71.5 138C80.0604 138 87 143.82 87 151Z" fill="#328CC1"/>
<path d="M35 151C35 158.18 28.0604 164 19.5 164C10.9396 164 4 158.18 4 151C4 143.82 10.9396 138 19.5 138C28.0604 138 35 143.82 35 151Z" fill="#328CC1"/>
<path d="M35 197C35 204.18 28.0604 210 19.5 210C10.9396 210 4 204.18 4 197C4 189.82 10.9396 184 19.5 184C28.0604 184 35 189.82 35 197Z" fill="#328CC1"/>
<path d="M87 197C87 204.18 80.0604 210 71.5 210C62.9396 210 56 204.18 56 197C56 189.82 62.9396 184 71.5 184C80.0604 184 87 189.82 87 197Z" fill="#328CC1"/>
<path d="M35 243C35 250.18 28.0604 256 19.5 256C10.9396 256 4 250.18 4 243C4 235.82 10.9396 230 19.5 230C28.0604 230 35 235.82 35 243Z" fill="#328CC1"/>
<path d="M87 243C87 250.18 80.0604 256 71.5 256C62.9396 256 56 250.18 56 243C56 235.82 62.9396 230 71.5 230C80.0604 230 87 235.82 87 243Z" fill="#328CC1"/>
<path d="M139 151C139 158.18 132.06 164 123.5 164C114.94 164 108 158.18 108 151C108 143.82 114.94 138 123.5 138C132.06 138 139 143.82 139 151Z" fill="#328CC1"/>
<path d="M243 151C243 158.18 236.06 164 227.5 164C218.94 164 212 158.18 212 151C212 143.82 218.94 138 227.5 138C236.06 138 243 143.82 243 151Z" fill="#328CC1"/>
<path d="M191 151C191 158.18 184.06 164 175.5 164C166.94 164 160 158.18 160 151C160 143.82 166.94 138 175.5 138C184.06 138 191 143.82 191 151Z" fill="#D98310"/>
<path d="M191 197C191 204.18 184.06 210 175.5 210C166.94 210 160 204.18 160 197C160 189.82 166.94 184 175.5 184C184.06 184 191 189.82 191 197Z" fill="#328CC1"/>
<path d="M243 197C243 204.18 236.06 210 227.5 210C218.94 210 212 204.18 212 197C212 189.82 218.94 184 227.5 184C236.06 184 243 189.82 243 197Z" fill="#D98310"/>
<path d="M139 197C139 204.18 132.06 210 123.5 210C114.94 210 108 204.18 108 197C108 189.82 114.94 184 123.5 184C132.06 184 139 189.82 139 197Z" fill="#328CC1"/>
<path d="M139 243C139 250.18 132.06 256 123.5 256C114.94 256 108 250.18 108 243C108 235.82 114.94 230 123.5 230C132.06 230 139 235.82 139 243Z" fill="#328CC1"/>
<path d="M191 243C191 250.18 184.06 256 175.5 256C166.94 256 160 250.18 160 243C160 235.82 166.94 230 175.5 230C184.06 230 191 235.82 191 243Z" fill="#328CC1"/>
<path d="M243 243C243 250.18 236.06 256 227.5 256C218.94 256 212 250.18 212 243C212 235.82 218.94 230 227.5 230C236.06 230 243 235.82 243 243Z" fill="#328CC1"/>
<path d="M295 151C295 158.18 288.06 164 279.5 164C270.94 164 264 158.18 264 151C264 143.82 270.94 138 279.5 138C288.06 138 295 143.82 295 151Z" fill="#328CC1"/>
<path d="M399 151C399 158.18 392.06 164 383.5 164C374.94 164 368 158.18 368 151C368 143.82 374.94 138 383.5 138C392.06 138 399 143.82 399 151Z" fill="#328CC1"/>
<path d="M347 151C347 158.18 340.06 164 331.5 164C322.94 164 316 158.18 316 151C316 143.82 322.94 138 331.5 138C340.06 138 347 143.82 347 151Z" fill="#328CC1"/>
<path d="M347 197C347 204.18 340.06 210 331.5 210C322.94 210 316 204.18 316 197C316 189.82 322.94 184 331.5 184C340.06 184 347 189.82 347 197Z" fill="#328CC1"/>
<path d="M399 197C399 204.18 392.06 210 383.5 210C374.94 210 368 204.18 368 197C368 189.82 374.94 184 383.5 184C392.06 184 399 189.82 399 197Z" fill="#328CC1"/>
<path d="M295 197C295 204.18 288.06 210 279.5 210C270.94 210 264 204.18 264 197C264 189.82 270.94 184 279.5 184C288.06 184 295 189.82 295 197Z" fill="#328CC1"/>
<path d="M295 243C295 250.18 288.06 256 279.5 256C270.94 256 264 250.18 264 243C264 235.82 270.94 230 279.5 230C288.06 230 295 235.82 295 243Z" fill="#D98310"/>
<path d="M347 243C347 250.18 340.06 256 331.5 256C322.94 256 316 250.18 316 243C316 235.82 322.94 230 331.5 230C340.06 230 347 235.82 347 243Z" fill="#328CC1"/>
<path d="M399 243C399 250.18 392.06 256 383.5 256C374.94 256 368 250.18 368 243C368 235.82 374.94 230 383.5 230C392.06 230 399 235.82 399 243Z" fill="#328CC1"/>
<path d="M87 279C87 286.18 80.0604 292 71.5 292C62.9396 292 56 286.18 56 279C56 271.82 62.9396 266 71.5 266C80.0604 266 87 271.82 87 279Z" fill="#328CC1"/>
<path d="M35 279C35 286.18 28.0604 292 19.5 292C10.9396 292 4 286.18 4 279C4 271.82 10.9396 266 19.5 266C28.0604 266 35 271.82 35 279Z" fill="#D98310"/>
<path d="M35 325C35 332.18 28.0604 338 19.5 338C10.9396 338 4 332.18 4 325C4 317.82 10.9396 312 19.5 312C28.0604 312 35 317.82 35 325Z" fill="#328CC1"/>
<path d="M87 325C87 332.18 80.0604 338 71.5 338C62.9396 338 56 332.18 56 325C56 317.82 62.9396 312 71.5 312C80.0604 312 87 317.82 87 325Z" fill="#D98310"/>
<path d="M35 371C35 378.18 28.0604 384 19.5 384C10.9396 384 4 378.18 4 371C4 363.82 10.9396 358 19.5 358C28.0604 358 35 363.82 35 371Z" fill="#328CC1"/>
<path d="M87 371C87 378.18 80.0604 384 71.5 384C62.9396 384 56 378.18 56 371C56 363.82 62.9396 358 71.5 358C80.0604 358 87 363.82 87 371Z" fill="#328CC1"/>
<path d="M139 279C139 286.18 132.06 292 123.5 292C114.94 292 108 286.18 108 279C108 271.82 114.94 266 123.5 266C132.06 266 139 271.82 139 279Z" fill="#328CC1"/>
<path d="M243 279C243 286.18 236.06 292 227.5 292C218.94 292 212 286.18 212 279C212 271.82 218.94 266 227.5 266C236.06 266 243 271.82 243 279Z" fill="#328CC1"/>
<path d="M191 279C191 286.18 184.06 292 175.5 292C166.94 292 160 286.18 160 279C160 271.82 166.94 266 175.5 266C184.06 266 191 271.82 191 279Z" fill="#328CC1"/>
<path d="M191 325C191 332.18 184.06 338 175.5 338C166.94 338 160 332.18 160 325C160 317.82 166.94 312 175.5 312C184.06 312 191 317.82 191 325Z" fill="#328CC1"/>
<path d="M243 325C243 332.18 236.06 338 227.5 338C218.94 338 212 332.18 212 325C212 317.82 218.94 312 227.5 312C236.06 312 243 317.82 243 325Z" fill="#328CC1"/>
<path d="M139 325C139 332.18 132.06 338 123.5 338C114.94 338 108 332.18 108 325C108 317.82 114.94 312 123.5 312C132.06 312 139 317.82 139 325Z" fill="#328CC1"/>
<path d="M139 371C139 378.18 132.06 384 123.5 384C114.94 384 108 378.18 108 371C108 363.82 114.94 358 123.5 358C132.06 358 139 363.82 139 371Z" fill="#D98310"/>
<path d="M191 371C191 378.18 184.06 384 175.5 384C166.94 384 160 378.18 160 371C160 363.82 166.94 358 175.5 358C184.06 358 191 363.82 191 371Z" fill="#328CC1"/>
<path d="M243 371C243 378.18 236.06 384 227.5 384C218.94 384 212 378.18 212 371C212 363.82 218.94 358 227.5 358C236.06 358 243 363.82 243 371Z" fill="#328CC1"/>
<path d="M295 279C295 286.18 288.06 292 279.5 292C270.94 292 264 286.18 264 279C264 271.82 270.94 266 279.5 266C288.06 266 295 271.82 295 279Z" fill="#328CC1"/>
<path d="M399 279C399 286.18 392.06 292 383.5 292C374.94 292 368 286.18 368 279C368 271.82 374.94 266 383.5 266C392.06 266 399 271.82 399 279Z" fill="#328CC1"/>
<path d="M347 279C347 286.18 340.06 292 331.5 292C322.94 292 316 286.18 316 279C316 271.82 322.94 266 331.5 266C340.06 266 347 271.82 347 279Z" fill="#328CC1"/>
<path d="M347 325C347 332.18 340.06 338 331.5 338C322.94 338 316 332.18 316 325C316 317.82 322.94 312 331.5 312C340.06 312 347 317.82 347 325Z" fill="#328CC1"/>
<path d="M399 325C399 332.18 392.06 338 383.5 338C374.94 338 368 332.18 368 325C368 317.82 374.94 312 383.5 312C392.06 312 399 317.82 399 325Z" fill="#328CC1"/>
<path d="M295 325C295 332.18 288.06 338 279.5 338C270.94 338 264 332.18 264 325C264 317.82 270.94 312 279.5 312C288.06 312 295 317.82 295 325Z" fill="#328CC1"/>
<path d="M295 371C295 378.18 288.06 384 279.5 384C270.94 384 264 378.18 264 371C264 363.82 270.94 358 279.5 358C288.06 358 295 363.82 295 371Z" fill="#328CC1"/>
<path d="M347 371C347 378.18 340.06 384 331.5 384C322.94 384 316 378.18 316 371C316 363.82 322.94 358 331.5 358C340.06 358 347 363.82 347 371Z" fill="#328CC1"/>
<path d="M399 371C399 378.18 392.06 384 383.5 384C374.94 384 368 378.18 368 371C368 363.82 374.94 358 383.5 358C392.06 358 399 363.82 399 371Z" fill="#328CC1"/>
<path d="M87 417C87 424.18 80.0604 430 71.5 430C62.9396 430 56 424.18 56 417C56 409.82 62.9396 404 71.5 404C80.0604 404 87 409.82 87 417Z" fill="#328CC1"/>
<path d="M35 417C35 424.18 28.0604 430 19.5 430C10.9396 430 4 424.18 4 417C4 409.82 10.9396 404 19.5 404C28.0604 404 35 409.82 35 417Z" fill="#328CC1"/>
<path d="M35 463C35 470.18 28.0604 476 19.5 476C10.9396 476 4 470.18 4 463C4 455.82 10.9396 450 19.5 450C28.0604 450 35 455.82 35 463Z" fill="#328CC1"/>
<path d="M87 463C87 470.18 80.0604 476 71.5 476C62.9396 476 56 470.18 56 463C56 455.82 62.9396 450 71.5 450C80.0604 450 87 455.82 87 463Z" fill="#328CC1"/>
<path d="M35 509C35 516.18 28.0604 522 19.5 522C10.9396 522 4 516.18 4 509C4 501.82 10.9396 496 19.5 496C28.0604 496 35 501.82 35 509Z" fill="#328CC1"/>
<path d="M87 509C87 516.18 80.0604 522 71.5 522C62.9396 522 56 516.18 56 509C56 501.82 62.9396 496 71.5 496C80.0604 496 87 501.82 87 509Z" fill="#328CC1"/>
<path d="M139 417C139 424.18 132.06 430 123.5 430C114.94 430 108 424.18 108 417C108 409.82 114.94 404 123.5 404C132.06 404 139 409.82 139 417Z" fill="#328CC1"/>
<path d="M243 417C243 424.18 236.06 430 227.5 430C218.94 430 212 424.18 212 417C212 409.82 218.94 404 227.5 404C236.06 404 243 409.82 243 417Z" fill="#328CC1"/>
<path d="M191 417C191 424.18 184.06 430 175.5 430C166.94 430 160 424.18 160 417C160 409.82 166.94 404 175.5 404C184.06 404 191 409.82 191 417Z" fill="#D98310"/>
<path d="M191 463C191 470.18 184.06 476 175.5 476C166.94 476 160 470.18 160 463C160 455.82 166.94 450 175.5 450C184.06 450 191 455.82 191 463Z" fill="#328CC1"/>
<path d="M243 463C243 470.18 236.06 476 227.5 476C218.94 476 212 470.18 212 463C212 455.82 218.94 450 227.5 450C236.06 450 243 455.82 243 463Z" fill="#D98310"/>
<path d="M139 463C139 470.18 132.06 476 123.5 476C114.94 476 108 470.18 108 463C108 455.82 114.94 450 123.5 450C132.06 450 139 455.82 139 463Z" fill="#328CC1"/>
<path d="M139 509C139 516.18 132.06 522 123.5 522C114.94 522 108 516.18 108 509C108 501.82 114.94 496 123.5 496C132.06 496 139 501.82 139 509Z" fill="#328CC1"/>
<path d="M191 509C191 516.18 184.06 522 175.5 522C166.94 522 160 516.18 160 509C160 501.82 166.94 496 175.5 496C184.06 496 191 501.82 191 509Z" fill="#328CC1"/>
<path d="M243 509C243 516.18 236.06 522 227.5 522C218.94 522 212 516.18 212 509C212 501.82 218.94 496 227.5 496C236.06 496 243 501.82 243 509Z" fill="#328CC1"/>
<path d="M295 417C295 424.18 288.06 430 279.5 430C270.94 430 264 424.18 264 417C264 409.82 270.94 404 279.5 404C288.06 404 295 409.82 295 417Z" fill="#328CC1"/>
<path d="M399 417C399 424.18 392.06 430 383.5 430C374.94 430 368 424.18 368 417C368 409.82 374.94 404 383.5 404C392.06 404 399 409.82 399 417Z" fill="#328CC1"/>
<path d="M347 417C347 424.18 340.06 430 331.5 430C322.94 430 316 424.18 316 417C316 409.82 322.94 404 331.5 404C340.06 404 347 409.82 347 417Z" fill="#328CC1"/>
<path d="M347 463C347 470.18 340.06 476 331.5 476C322.94 476 316 470.18 316 463C316 455.82 322.94 450 331.5 450C340.06 450 347 455.82 347 463Z" fill="#328CC1"/>
<path d="M399 463C399 470.18 392.06 476 383.5 476C374.94 476 368 470.18 368 463C368 455.82 374.94 450 383.5 450C392.06 450 399 455.82 399 463Z" fill="#328CC1"/>
<path d="M295 463C295 470.18 288.06 476 279.5 476C270.94 476 264 470.18 264 463C264 455.82 270.94 450 279.5 450C288.06 450 295 455.82 295 463Z" fill="#328CC1"/>
<path d="M295 509C295 516.18 288.06 522 279.5 522C270.94 522 264 516.18 264 509C264 501.82 270.94 496 279.5 496C288.06 496 295 501.82 295 509Z" fill="#D98310"/>
<path d="M347 509C347 516.18 340.06 522 331.5 522C322.94 522 316 516.18 316 509C316 501.82 322.94 496 331.5 496C340.06 496 347 501.82 347 509Z" fill="#328CC1"/>
<path d="M399 509C399 516.18 392.06 522 383.5 522C374.94 522 368 516.18 368 509C368 501.82 374.94 496 383.5 496C392.06 496 399 501.82 399 509Z" fill="#328CC1"/>
<path d="M447 279C447 286.18 440.06 292 431.5 292C422.94 292 416 286.18 416 279C416 271.82 422.94 266 431.5 266C440.06 266 447 271.82 447 279Z" fill="#328CC1"/>
<path d="M551 279C551 286.18 544.06 292 535.5 292C526.94 292 520 286.18 520 279C520 271.82 526.94 266 535.5 266C544.06 266 551 271.82 551 279Z" fill="#328CC1"/>
<path d="M499 279C499 286.18 492.06 292 483.5 292C474.94 292 468 286.18 468 279C468 271.82 474.94 266 483.5 266C492.06 266 499 271.82 499 279Z" fill="#D98310"/>
<path d="M499 325C499 332.18 492.06 338 483.5 338C474.94 338 468 332.18 468 325C468 317.82 474.94 312 483.5 312C492.06 312 499 317.82 499 325Z" fill="#328CC1"/>
<path d="M551 325C551 332.18 544.06 338 535.5 338C526.94 338 520 332.18 520 325C520 317.82 526.94 312 535.5 312C544.06 312 551 317.82 551 325Z" fill="#D98310"/>
<path d="M447 325C447 332.18 440.06 338 431.5 338C422.94 338 416 332.18 416 325C416 317.82 422.94 312 431.5 312C440.06 312 447 317.82 447 325Z" fill="#328CC1"/>
<path d="M447 371C447 378.18 440.06 384 431.5 384C422.94 384 416 378.18 416 371C416 363.82 422.94 358 431.5 358C440.06 358 447 363.82 447 371Z" fill="#328CC1"/>
<path d="M499 371C499 378.18 492.06 384 483.5 384C474.94 384 468 378.18 468 371C468 363.82 474.94 358 483.5 358C492.06 358 499 363.82 499 371Z" fill="#328CC1"/>
<path d="M551 371C551 378.18 544.06 384 535.5 384C526.94 384 520 378.18 520 371C520 363.82 526.94 358 535.5 358C544.06 358 551 363.82 551 371Z" fill="#328CC1"/>
<path d="M603 279C603 286.18 596.06 292 587.5 292C578.94 292 572 286.18 572 279C572 271.82 578.94 266 587.5 266C596.06 266 603 271.82 603 279Z" fill="#328CC1"/>
<path d="M707 279C707 286.18 700.06 292 691.5 292C682.94 292 676 286.18 676 279C676 271.82 682.94 266 691.5 266C700.06 266 707 271.82 707 279Z" fill="#328CC1"/>
<path d="M655 279C655 286.18 648.06 292 639.5 292C630.94 292 624 286.18 624 279C624 271.82 630.94 266 639.5 266C648.06 266 655 271.82 655 279Z" fill="#328CC1"/>
<path d="M655 325C655 332.18 648.06 338 639.5 338C630.94 338 624 332.18 624 325C624 317.82 630.94 312 639.5 312C648.06 312 655 317.82 655 325Z" fill="#328CC1"/>
<path d="M707 325C707 332.18 700.06 338 691.5 338C682.94 338 676 332.18 676 325C676 317.82 682.94 312 691.5 312C700.06 312 707 317.82 707 325Z" fill="#328CC1"/>
<path d="M603 325C603 332.18 596.06 338 587.5 338C578.94 338 572 332.18 572 325C572 317.82 578.94 312 587.5 312C596.06 312 603 317.82 603 325Z" fill="#328CC1"/>
<path d="M603 371C603 378.18 596.06 384 587.5 384C578.94 384 572 378.18 572 371C572 363.82 578.94 358 587.5 358C596.06 358 603 363.82 603 371Z" fill="#D98310"/>
<path d="M655 371C655 378.18 648.06 384 639.5 384C630.94 384 624 378.18 624 371C624 363.82 630.94 358 639.5 358C648.06 358 655 363.82 655 371Z" fill="#328CC1"/>
<path d="M707 371C707 378.18 700.06 384 691.5 384C682.94 384 676 378.18 676 371C676 363.82 682.94 358 691.5 358C700.06 358 707 363.82 707 371Z" fill="#328CC1"/>
<path d="M759 279C759 286.18 752.06 292 743.5 292C734.94 292 728 286.18 728 279C728 271.82 734.94 266 743.5 266C752.06 266 759 271.82 759 279Z" fill="#328CC1"/>
<path d="M863 279C863 286.18 856.06 292 847.5 292C838.94 292 832 286.18 832 279C832 271.82 838.94 266 847.5 266C856.06 266 863 271.82 863 279Z" fill="#328CC1"/>
<path d="M811 279C811 286.18 804.06 292 795.5 292C786.94 292 780 286.18 780 279C780 271.82 786.94 266 795.5 266C804.06 266 811 271.82 811 279Z" fill="#328CC1"/>
<path d="M811 325C811 332.18 804.06 338 795.5 338C786.94 338 780 332.18 780 325C780 317.82 786.94 312 795.5 312C804.06 312 811 317.82 811 325Z" fill="#328CC1"/>
<path d="M863 325C863 332.18 856.06 338 847.5 338C838.94 338 832 332.18 832 325C832 317.82 838.94 312 847.5 312C856.06 312 863 317.82 863 325Z" fill="#328CC1"/>
<path d="M759 325C759 332.18 752.06 338 743.5 338C734.94 338 728 332.18 728 325C728 317.82 734.94 312 743.5 312C752.06 312 759 317.82 759 325Z" fill="#328CC1"/>
<path d="M759 371C759 378.18 752.06 384 743.5 384C734.94 384 728 378.18 728 371C728 363.82 734.94 358 743.5 358C752.06 358 759 363.82 759 371Z" fill="#328CC1"/>
<path d="M811 371C811 378.18 804.06 384 795.5 384C786.94 384 780 378.18 780 371C780 363.82 786.94 358 795.5 358C804.06 358 811 363.82 811 371Z" fill="#328CC1"/>
<path d="M863 371C863 378.18 856.06 384 847.5 384C838.94 384 832 378.18 832 371C832 363.82 838.94 358 847.5 358C856.06 358 863 363.82 863 371Z" fill="#328CC1"/>
<path d="M447 417C447 424.18 440.06 430 431.5 430C422.94 430 416 424.18 416 417C416 409.82 422.94 404 431.5 404C440.06 404 447 409.82 447 417Z" fill="#328CC1"/>
<path d="M551 417C551 424.18 544.06 430 535.5 430C526.94 430 520 424.18 520 417C520 409.82 526.94 404 535.5 404C544.06 404 551 409.82 551 417Z" fill="#328CC1"/>
<path d="M499 417C499 424.18 492.06 430 483.5 430C474.94 430 468 424.18 468 417C468 409.82 474.94 404 483.5 404C492.06 404 499 409.82 499 417Z" fill="#328CC1"/>
<path d="M499 463C499 470.18 492.06 476 483.5 476C474.94 476 468 470.18 468 463C468 455.82 474.94 450 483.5 450C492.06 450 499 455.82 499 463Z" fill="#328CC1"/>
<path d="M551 463C551 470.18 544.06 476 535.5 476C526.94 476 520 470.18 520 463C520 455.82 526.94 450 535.5 450C544.06 450 551 455.82 551 463Z" fill="#328CC1"/>
<path d="M447 463C447 470.18 440.06 476 431.5 476C422.94 476 416 470.18 416 463C416 455.82 422.94 450 431.5 450C440.06 450 447 455.82 447 463Z" fill="#328CC1"/>
<path d="M447 509C447 516.18 440.06 522 431.5 522C422.94 522 416 516.18 416 509C416 501.82 422.94 496 431.5 496C440.06 496 447 501.82 447 509Z" fill="#328CC1"/>
<path d="M499 509C499 516.18 492.06 522 483.5 522C474.94 522 468 516.18 468 509C468 501.82 474.94 496 483.5 496C492.06 496 499 501.82 499 509Z" fill="#328CC1"/>
<path d="M551 509C551 516.18 544.06 522 535.5 522C526.94 522 520 516.18 520 509C520 501.82 526.94 496 535.5 496C544.06 496 551 501.82 551 509Z" fill="#328CC1"/>
<path d="M603 417C603 424.18 596.06 430 587.5 430C578.94 430 572 424.18 572 417C572 409.82 578.94 404 587.5 404C596.06 404 603 409.82 603 417Z" fill="#328CC1"/>
<path d="M707 417C707 424.18 700.06 430 691.5 430C682.94 430 676 424.18 676 417C676 409.82 682.94 404 691.5 404C700.06 404 707 409.82 707 417Z" fill="#328CC1"/>
<path d="M655 417C655 424.18 648.06 430 639.5 430C630.94 430 624 424.18 624 417C624 409.82 630.94 404 639.5 404C648.06 404 655 409.82 655 417Z" fill="#D98310"/>
<path d="M655 463C655 470.18 648.06 476 639.5 476C630.94 476 624 470.18 624 463C624 455.82 630.94 450 639.5 450C648.06 450 655 455.82 655 463Z" fill="#328CC1"/>
<path d="M707 463C707 470.18 700.06 476 691.5 476C682.94 476 676 470.18 676 463C676 455.82 682.94 450 691.5 450C700.06 450 707 455.82 707 463Z" fill="#D98310"/>
<path d="M603 463C603 470.18 596.06 476 587.5 476C578.94 476 572 470.18 572 463C572 455.82 578.94 450 587.5 450C596.06 450 603 455.82 603 463Z" fill="#328CC1"/>
<path d="M603 509C603 516.18 596.06 522 587.5 522C578.94 522 572 516.18 572 509C572 501.82 578.94 496 587.5 496C596.06 496 603 501.82 603 509Z" fill="#328CC1"/>
<path d="M655 509C655 516.18 648.06 522 639.5 522C630.94 522 624 516.18 624 509C624 501.82 630.94 496 639.5 496C648.06 496 655 501.82 655 509Z" fill="#328CC1"/>
<path d="M707 509C707 516.18 700.06 522 691.5 522C682.94 522 676 516.18 676 509C676 501.82 682.94 496 691.5 496C700.06 496 707 501.82 707 509Z" fill="#328CC1"/>
<path d="M759 417C759 424.18 752.06 430 743.5 430C734.94 430 728 424.18 728 417C728 409.82 734.94 404 743.5 404C752.06 404 759 409.82 759 417Z" fill="#328CC1"/>
<path d="M863 417C863 424.18 856.06 430 847.5 430C838.94 430 832 424.18 832 417C832 409.82 838.94 404 847.5 404C856.06 404 863 409.82 863 417Z" fill="#328CC1"/>
<path d="M811 417C811 424.18 804.06 430 795.5 430C786.94 430 780 424.18 780 417C780 409.82 786.94 404 795.5 404C804.06 404 811 409.82 811 417Z" fill="#328CC1"/>
<path d="M811 463C811 470.18 804.06 476 795.5 476C786.94 476 780 470.18 780 463C780 455.82 786.94 450 795.5 450C804.06 450 811 455.82 811 463Z" fill="#328CC1"/>
<path d="M863 463C863 470.18 856.06 476 847.5 476C838.94 476 832 470.18 832 463C832 455.82 838.94 450 847.5 450C856.06 450 863 455.82 863 463Z" fill="#328CC1"/>
<path d="M759 463C759 470.18 752.06 476 743.5 476C734.94 476 728 470.18 728 463C728 455.82 734.94 450 743.5 450C752.06 450 759 455.82 759 463Z" fill="#328CC1"/>
<path d="M759 509C759 516.18 752.06 522 743.5 522C734.94 522 728 516.18 728 509C728 501.82 734.94 496 743.5 496C752.06 496 759 501.82 759 509Z" fill="#D98310"/>
<path d="M811 509C811 516.18 804.06 522 795.5 522C786.94 522 780 516.18 780 509C780 501.82 786.94 496 795.5 496C804.06 496 811 501.82 811 509Z" fill="#328CC1"/>
<path d="M863 509C863 516.18 856.06 522 847.5 522C838.94 522 832 516.18 832 509C832 501.82 838.94 496 847.5 496C856.06 496 863 501.82 863 509Z" fill="#328CC1"/>
<path d="M447 13C447 20.1797 440.06 26 431.5 26C422.94 26 416 20.1797 416 13C416 5.8203 422.94 0 431.5 0C440.06 0 447 5.8203 447 13Z" fill="#328CC1"/>
<path d="M551 13C551 20.1797 544.06 26 535.5 26C526.94 26 520 20.1797 520 13C520 5.8203 526.94 0 535.5 0C544.06 0 551 5.8203 551 13Z" fill="#328CC1"/>
<path d="M499 13C499 20.1797 492.06 26 483.5 26C474.94 26 468 20.1797 468 13C468 5.8203 474.94 0 483.5 0C492.06 0 499 5.8203 499 13Z" fill="#D98310"/>
<path d="M499 59C499 66.1797 492.06 72 483.5 72C474.94 72 468 66.1797 468 59C468 51.8203 474.94 46 483.5 46C492.06 46 499 51.8203 499 59Z" fill="#328CC1"/>
<path d="M551 59C551 66.1797 544.06 72 535.5 72C526.94 72 520 66.1797 520 59C520 51.8203 526.94 46 535.5 46C544.06 46 551 51.8203 551 59Z" fill="#D98310"/>
<path d="M447 59C447 66.1797 440.06 72 431.5 72C422.94 72 416 66.1797 416 59C416 51.8203 422.94 46 431.5 46C440.06 46 447 51.8203 447 59Z" fill="#328CC1"/>
<path d="M447 105C447 112.18 440.06 118 431.5 118C422.94 118 416 112.18 416 105C416 97.8203 422.94 92 431.5 92C440.06 92 447 97.8203 447 105Z" fill="#328CC1"/>
<path d="M499 105C499 112.18 492.06 118 483.5 118C474.94 118 468 112.18 468 105C468 97.8203 474.94 92 483.5 92C492.06 92 499 97.8203 499 105Z" fill="#328CC1"/>
<path d="M551 105C551 112.18 544.06 118 535.5 118C526.94 118 520 112.18 520 105C520 97.8203 526.94 92 535.5 92C544.06 92 551 97.8203 551 105Z" fill="#328CC1"/>
<path d="M603 13C603 20.1797 596.06 26 587.5 26C578.94 26 572 20.1797 572 13C572 5.8203 578.94 0 587.5 0C596.06 0 603 5.8203 603 13Z" fill="#328CC1"/>
<path d="M707 13C707 20.1797 700.06 26 691.5 26C682.94 26 676 20.1797 676 13C676 5.8203 682.94 0 691.5 0C700.06 0 707 5.8203 707 13Z" fill="#328CC1"/>
<path d="M655 13C655 20.1797 648.06 26 639.5 26C630.94 26 624 20.1797 624 13C624 5.8203 630.94 0 639.5 0C648.06 0 655 5.8203 655 13Z" fill="#328CC1"/>
<path d="M655 59C655 66.1797 648.06 72 639.5 72C630.94 72 624 66.1797 624 59C624 51.8203 630.94 46 639.5 46C648.06 46 655 51.8203 655 59Z" fill="#328CC1"/>
<path d="M707 59C707 66.1797 700.06 72 691.5 72C682.94 72 676 66.1797 676 59C676 51.8203 682.94 46 691.5 46C700.06 46 707 51.8203 707 59Z" fill="#328CC1"/>
<path d="M603 59C603 66.1797 596.06 72 587.5 72C578.94 72 572 66.1797 572 59C572 51.8203 578.94 46 587.5 46C596.06 46 603 51.8203 603 59Z" fill="#328CC1"/>
<path d="M603 105C603 112.18 596.06 118 587.5 118C578.94 118 572 112.18 572 105C572 97.8203 578.94 92 587.5 92C596.06 92 603 97.8203 603 105Z" fill="#D98310"/>
<path d="M655 105C655 112.18 648.06 118 639.5 118C630.94 118 624 112.18 624 105C624 97.8203 630.94 92 639.5 92C648.06 92 655 97.8203 655 105Z" fill="#328CC1"/>
<path d="M707 105C707 112.18 700.06 118 691.5 118C682.94 118 676 112.18 676 105C676 97.8203 682.94 92 691.5 92C700.06 92 707 97.8203 707 105Z" fill="#328CC1"/>
<path d="M759 13C759 20.1797 752.06 26 743.5 26C734.94 26 728 20.1797 728 13C728 5.8203 734.94 0 743.5 0C752.06 0 759 5.8203 759 13Z" fill="#328CC1"/>
<path d="M863 13C863 20.1797 856.06 26 847.5 26C838.94 26 832 20.1797 832 13C832 5.8203 838.94 0 847.5 0C856.06 0 863 5.8203 863 13Z" fill="#328CC1"/>
<path d="M811 13C811 20.1797 804.06 26 795.5 26C786.94 26 780 20.1797 780 13C780 5.8203 786.94 0 795.5 0C804.06 0 811 5.8203 811 13Z" fill="#328CC1"/>
<path d="M811 59C811 66.1797 804.06 72 795.5 72C786.94 72 780 66.1797 780 59C780 51.8203 786.94 46 795.5 46C804.06 46 811 51.8203 811 59Z" fill="#328CC1"/>
<path d="M863 59C863 66.1797 856.06 72 847.5 72C838.94 72 832 66.1797 832 59C832 51.8203 838.94 46 847.5 46C856.06 46 863 51.8203 863 59Z" fill="#328CC1"/>
<path d="M759 59C759 66.1797 752.06 72 743.5 72C734.94 72 728 66.1797 728 59C728 51.8203 734.94 46 743.5 46C752.06 46 759 51.8203 759 59Z" fill="#328CC1"/>
<path d="M759 105C759 112.18 752.06 118 743.5 118C734.94 118 728 112.18 728 105C728 97.8203 734.94 92 743.5 92C752.06 92 759 97.8203 759 105Z" fill="#328CC1"/>
<path d="M811 105C811 112.18 804.06 118 795.5 118C786.94 118 780 112.18 780 105C780 97.8203 786.94 92 795.5 92C804.06 92 811 97.8203 811 105Z" fill="#328CC1"/>
<path d="M863 105C863 112.18 856.06 118 847.5 118C838.94 118 832 112.18 832 105C832 97.8203 838.94 92 847.5 92C856.06 92 863 97.8203 863 105Z" fill="#328CC1"/>
<path d="M447 151C447 158.18 440.06 164 431.5 164C422.94 164 416 158.18 416 151C416 143.82 422.94 138 431.5 138C440.06 138 447 143.82 447 151Z" fill="#328CC1"/>
<path d="M551 151C551 158.18 544.06 164 535.5 164C526.94 164 520 158.18 520 151C520 143.82 526.94 138 535.5 138C544.06 138 551 143.82 551 151Z" fill="#328CC1"/>
<path d="M499 151C499 158.18 492.06 164 483.5 164C474.94 164 468 158.18 468 151C468 143.82 474.94 138 483.5 138C492.06 138 499 143.82 499 151Z" fill="#328CC1"/>
<path d="M499 197C499 204.18 492.06 210 483.5 210C474.94 210 468 204.18 468 197C468 189.82 474.94 184 483.5 184C492.06 184 499 189.82 499 197Z" fill="#328CC1"/>
<path d="M551 197C551 204.18 544.06 210 535.5 210C526.94 210 520 204.18 520 197C520 189.82 526.94 184 535.5 184C544.06 184 551 189.82 551 197Z" fill="#328CC1"/>
<path d="M447 197C447 204.18 440.06 210 431.5 210C422.94 210 416 204.18 416 197C416 189.82 422.94 184 431.5 184C440.06 184 447 189.82 447 197Z" fill="#328CC1"/>
<path d="M447 243C447 250.18 440.06 256 431.5 256C422.94 256 416 250.18 416 243C416 235.82 422.94 230 431.5 230C440.06 230 447 235.82 447 243Z" fill="#328CC1"/>
<path d="M499 243C499 250.18 492.06 256 483.5 256C474.94 256 468 250.18 468 243C468 235.82 474.94 230 483.5 230C492.06 230 499 235.82 499 243Z" fill="#328CC1"/>
<path d="M551 243C551 250.18 544.06 256 535.5 256C526.94 256 520 250.18 520 243C520 235.82 526.94 230 535.5 230C544.06 230 551 235.82 551 243Z" fill="#328CC1"/>
<path d="M603 151C603 158.18 596.06 164 587.5 164C578.94 164 572 158.18 572 151C572 143.82 578.94 138 587.5 138C596.06 138 603 143.82 603 151Z" fill="#328CC1"/>
<path d="M707 151C707 158.18 700.06 164 691.5 164C682.94 164 676 158.18 676 151C676 143.82 682.94 138 691.5 138C700.06 138 707 143.82 707 151Z" fill="#328CC1"/>
<path d="M655 151C655 158.18 648.06 164 639.5 164C630.94 164 624 158.18 624 151C624 143.82 630.94 138 639.5 138C648.06 138 655 143.82 655 151Z" fill="#D98310"/>
<path d="M655 197C655 204.18 648.06 210 639.5 210C630.94 210 624 204.18 624 197C624 189.82 630.94 184 639.5 184C648.06 184 655 189.82 655 197Z" fill="#328CC1"/>
<path d="M707 197C707 204.18 700.06 210 691.5 210C682.94 210 676 204.18 676 197C676 189.82 682.94 184 691.5 184C700.06 184 707 189.82 707 197Z" fill="#D98310"/>
<path d="M603 197C603 204.18 596.06 210 587.5 210C578.94 210 572 204.18 572 197C572 189.82 578.94 184 587.5 184C596.06 184 603 189.82 603 197Z" fill="#328CC1"/>
<path d="M603 243C603 250.18 596.06 256 587.5 256C578.94 256 572 250.18 572 243C572 235.82 578.94 230 587.5 230C596.06 230 603 235.82 603 243Z" fill="#328CC1"/>
<path d="M655 243C655 250.18 648.06 256 639.5 256C630.94 256 624 250.18 624 243C624 235.82 630.94 230 639.5 230C648.06 230 655 235.82 655 243Z" fill="#328CC1"/>
<path d="M707 243C707 250.18 700.06 256 691.5 256C682.94 256 676 250.18 676 243C676 235.82 682.94 230 691.5 230C700.06 230 707 235.82 707 243Z" fill="#328CC1"/>
<path d="M759 151C759 158.18 752.06 164 743.5 164C734.94 164 728 158.18 728 151C728 143.82 734.94 138 743.5 138C752.06 138 759 143.82 759 151Z" fill="#328CC1"/>
<path d="M863 151C863 158.18 856.06 164 847.5 164C838.94 164 832 158.18 832 151C832 143.82 838.94 138 847.5 138C856.06 138 863 143.82 863 151Z" fill="#328CC1"/>
<path d="M811 151C811 158.18 804.06 164 795.5 164C786.94 164 780 158.18 780 151C780 143.82 786.94 138 795.5 138C804.06 138 811 143.82 811 151Z" fill="#328CC1"/>
<path d="M811 197C811 204.18 804.06 210 795.5 210C786.94 210 780 204.18 780 197C780 189.82 786.94 184 795.5 184C804.06 184 811 189.82 811 197Z" fill="#328CC1"/>
<path d="M863 197C863 204.18 856.06 210 847.5 210C838.94 210 832 204.18 832 197C832 189.82 838.94 184 847.5 184C856.06 184 863 189.82 863 197Z" fill="#328CC1"/>
<path d="M759 197C759 204.18 752.06 210 743.5 210C734.94 210 728 204.18 728 197C728 189.82 734.94 184 743.5 184C752.06 184 759 189.82 759 197Z" fill="#328CC1"/>
<path d="M759 243C759 250.18 752.06 256 743.5 256C734.94 256 728 250.18 728 243C728 235.82 734.94 230 743.5 230C752.06 230 759 235.82 759 243Z" fill="#D98310"/>
<path d="M811 243C811 250.18 804.06 256 795.5 256C786.94 256 780 250.18 780 243C780 235.82 786.94 230 795.5 230C804.06 230 811 235.82 811 243Z" fill="#328CC1"/>
<path d="M863 243C863 250.18 856.06 256 847.5 256C838.94 256 832 250.18 832 243C832 235.82 838.94 230 847.5 230C856.06 230 863 235.82 863 243Z" fill="#328CC1"/>
</g>
<defs>
<filter id="filter0_d_101_222" x="0" y="0" width="867" height="530" filterUnits="userSpaceOnUse" color-interpolation-filters="sRGB">
<feFlood flood-opacity="0" result="BackgroundImageFix"/>
<feColorMatrix in="SourceAlpha" type="matrix" values="0 0 0 0 0 0 0 0 0 0 0 0 0 0 0 0 0 0 127 0" result="hardAlpha"/>
<feOffset dy="4"/>
<feGaussianBlur stdDeviation="2"/>
<feComposite in2="hardAlpha" operator="out"/>
<feColorMatrix type="matrix" values="0 0 0 0 0 0 0 0 0 0 0 0 0 0 0 0 0 0 0.25 0"/>
<feBlend mode="normal" in2="BackgroundImageFix" result="effect1_dropShadow_101_222"/>
<feBlend mode="normal" in="SourceGraphic" in2="effect1_dropShadow_101_222" result="shape"/>
</filter>
</defs>
</svg>
