<svg width="496" height="315" viewBox="0 0 496 315" fill="none" xmlns="http://www.w3.org/2000/svg">
<path d="M20 151C20 145.477 15.5228 141 10 141C4.47715 141 0 145.477 0 151C0 156.523 4.47715 161 10 161C15.5228 161 20 156.523 20 151Z" fill="#FD7F6F" fill-opacity="0.7"/>
<path d="M40 131C40 125.477 35.5228 121 30 121C24.4772 121 20 125.477 20 131C20 136.523 24.4772 141 30 141C35.5228 141 40 136.523 40 131Z" fill="#FD7F6F" fill-opacity="0.7"/>
<path d="M60 151C60 145.477 55.5228 141 50 141C44.4772 141 40 145.477 40 151C40 156.523 44.4772 161 50 161C55.5228 161 60 156.523 60 151Z" fill="#7EB0D5" fill-opacity="0.7"/>
<path d="M20 109C20 103.477 15.5228 99 10 99C4.47715 99 0 103.477 0 109C0 114.523 4.47715 119 10 119C15.5228 119 20 114.523 20 109Z" fill="#7EB0D5" fill-opacity="0.7"/>
<path d="M40 91C40 85.4772 35.5228 81 30 81C24.4772 81 20 85.4772 20 91C20 96.5228 24.4772 101 30 101C35.5228 101 40 96.5228 40 91Z" fill="#FFB55A" fill-opacity="0.7"/>
<path d="M100 71C100 65.4772 95.5228 61 90 61C84.4772 61 80 65.4772 80 71C80 76.5228 84.4772 81 90 81C95.5228 81 100 76.5228 100 71Z" fill="#FFB55A" fill-opacity="0.7"/>
<path d="M60 111C60 105.477 55.5228 101 50 101C44.4772 101 40 105.477 40 111C40 116.523 44.4772 121 50 121C55.5228 121 60 116.523 60 111Z" fill="#FD7F6F" fill-opacity="0.7"/>
<path d="M120 171C120 165.477 115.523 161 110 161C104.477 161 100 165.477 100 171C100 176.523 104.477 181 110 181C115.523 181 120 176.523 120 171Z" fill="#FD7F6F" fill-opacity="0.7"/>
<path d="M80 131C80 125.477 75.5228 121 70 121C64.4772 121 60 125.477 60 131C60 136.523 64.4772 141 70 141C75.5228 141 80 136.523 80 131Z" fill="#7EB0D5" fill-opacity="0.7"/>
<path d="M100 151C100 145.477 95.5228 141 90 141C84.4772 141 80 145.477 80 151C80 156.523 84.4772 161 90 161C95.5228 161 100 156.523 100 151Z" fill="#FFB55A" fill-opacity="0.7"/>
<path d="M80 91C80 85.4772 75.5228 81 70 81C64.4772 81 60 85.4772 60 91C60 96.5228 64.4772 101 70 101C75.5228 101 80 96.5228 80 91Z" fill="#FD7F6F" fill-opacity="0.7"/>
<path d="M120 91C120 85.4772 115.523 81 110 81C104.477 81 100 85.4772 100 91C100 96.5228 104.477 101 110 101C115.523 101 120 96.5228 120 91Z" fill="#7EB0D5" fill-opacity="0.7"/>
<path d="M100 111C100 105.477 95.5228 101 90 101C84.4772 101 80 105.477 80 111C80 116.523 84.4772 121 90 121C95.5228 121 100 116.523 100 111Z" fill="#7EB0D5" fill-opacity="0.7"/>
<path d="M140 111C140 105.477 135.523 101 130 101C124.477 101 120 105.477 120 111C120 116.523 124.477 121 130 121C135.523 121 140 116.523 140 111Z" fill="#FD7F6F" fill-opacity="0.7"/>
<path d="M160 91C160 85.4772 155.523 81 150 81C144.477 81 140 85.4772 140 91C140 96.5228 144.477 101 150 101C155.523 101 160 96.5228 160 91Z" fill="#FD7F6F" fill-opacity="0.7"/>
<path d="M180 111C180 105.477 175.523 101 170 101C164.477 101 160 105.477 160 111C160 116.523 164.477 121 170 121C175.523 121 180 116.523 180 111Z" fill="#7EB0D5" fill-opacity="0.7"/>
<path d="M140 69C140 63.4772 135.523 59 130 59C124.477 59 120 63.4772 120 69C120 74.5228 124.477 79 130 79C135.523 79 140 74.5228 140 69Z" fill="#7EB0D5" fill-opacity="0.7"/>
<path d="M160 51C160 45.4772 155.523 41 150 41C144.477 41 140 45.4772 140 51C140 56.5228 144.477 61 150 61C155.523 61 160 56.5228 160 51Z" fill="#FFB55A" fill-opacity="0.7"/>
<path d="M220 31C220 25.4772 215.523 21 210 21C204.477 21 200 25.4772 200 31C200 36.5228 204.477 41 210 41C215.523 41 220 36.5228 220 31Z" fill="#FFB55A" fill-opacity="0.7"/>
<path d="M180 71C180 65.4772 175.523 61 170 61C164.477 61 160 65.4772 160 71C160 76.5228 164.477 81 170 81C175.523 81 180 76.5228 180 71Z" fill="#FD7F6F" fill-opacity="0.7"/>
<path d="M240 131C240 125.477 235.523 121 230 121C224.477 121 220 125.477 220 131C220 136.523 224.477 141 230 141C235.523 141 240 136.523 240 131Z" fill="#FD7F6F" fill-opacity="0.7"/>
<path d="M200 91C200 85.4772 195.523 81 190 81C184.477 81 180 85.4772 180 91C180 96.5228 184.477 101 190 101C195.523 101 200 96.5228 200 91Z" fill="#7EB0D5" fill-opacity="0.7"/>
<path d="M220 111C220 105.477 215.523 101 210 101C204.477 101 200 105.477 200 111C200 116.523 204.477 121 210 121C215.523 121 220 116.523 220 111Z" fill="#FFB55A" fill-opacity="0.7"/>
<path d="M200 51C200 45.4772 195.523 41 190 41C184.477 41 180 45.4772 180 51C180 56.5228 184.477 61 190 61C195.523 61 200 56.5228 200 51Z" fill="#FD7F6F" fill-opacity="0.7"/>
<path d="M240 51C240 45.4772 235.523 41 230 41C224.477 41 220 45.4772 220 51C220 56.5228 224.477 61 230 61C235.523 61 240 56.5228 240 51Z" fill="#7EB0D5" fill-opacity="0.7"/>
<path d="M220 71C220 65.4772 215.523 61 210 61C204.477 61 200 65.4772 200 71C200 76.5228 204.477 81 210 81C215.523 81 220 76.5228 220 71Z" fill="#7EB0D5" fill-opacity="0.7"/>
<path d="M20 285C20 279.477 15.5228 275 10 275C4.47715 275 0 279.477 0 285C0 290.523 4.47715 295 10 295C15.5228 295 20 290.523 20 285Z" fill="#FD7F6F" fill-opacity="0.7"/>
<path d="M40 265C40 259.477 35.5228 255 30 255C24.4772 255 20 259.477 20 265C20 270.523 24.4772 275 30 275C35.5228 275 40 270.523 40 265Z" fill="#FD7F6F" fill-opacity="0.7"/>
<path d="M60 285C60 279.477 55.5228 275 50 275C44.4772 275 40 279.477 40 285C40 290.523 44.4772 295 50 295C55.5228 295 60 290.523 60 285Z" fill="#7EB0D5" fill-opacity="0.7"/>
<path d="M20 243C20 237.477 15.5228 233 10 233C4.47715 233 0 237.477 0 243C0 248.523 4.47715 253 10 253C15.5228 253 20 248.523 20 243Z" fill="#7EB0D5" fill-opacity="0.7"/>
<path d="M40 225C40 219.477 35.5228 215 30 215C24.4772 215 20 219.477 20 225C20 230.523 24.4772 235 30 235C35.5228 235 40 230.523 40 225Z" fill="#FFB55A" fill-opacity="0.7"/>
<path d="M100 205C100 199.477 95.5228 195 90 195C84.4772 195 80 199.477 80 205C80 210.523 84.4772 215 90 215C95.5228 215 100 210.523 100 205Z" fill="#FFB55A" fill-opacity="0.7"/>
<path d="M60 245C60 239.477 55.5228 235 50 235C44.4772 235 40 239.477 40 245C40 250.523 44.4772 255 50 255C55.5228 255 60 250.523 60 245Z" fill="#FD7F6F" fill-opacity="0.7"/>
<path d="M120 305C120 299.477 115.523 295 110 295C104.477 295 100 299.477 100 305C100 310.523 104.477 315 110 315C115.523 315 120 310.523 120 305Z" fill="#FD7F6F" fill-opacity="0.7"/>
<path d="M80 265C80 259.477 75.5228 255 70 255C64.4772 255 60 259.477 60 265C60 270.523 64.4772 275 70 275C75.5228 275 80 270.523 80 265Z" fill="#7EB0D5" fill-opacity="0.7"/>
<path d="M100 285C100 279.477 95.5228 275 90 275C84.4772 275 80 279.477 80 285C80 290.523 84.4772 295 90 295C95.5228 295 100 290.523 100 285Z" fill="#FFB55A" fill-opacity="0.7"/>
<path d="M80 225C80 219.477 75.5228 215 70 215C64.4772 215 60 219.477 60 225C60 230.523 64.4772 235 70 235C75.5228 235 80 230.523 80 225Z" fill="#FD7F6F" fill-opacity="0.7"/>
<path d="M120 225C120 219.477 115.523 215 110 215C104.477 215 100 219.477 100 225C100 230.523 104.477 235 110 235C115.523 235 120 230.523 120 225Z" fill="#7EB0D5" fill-opacity="0.7"/>
<path d="M100 245C100 239.477 95.5228 235 90 235C84.4772 235 80 239.477 80 245C80 250.523 84.4772 255 90 255C95.5228 255 100 250.523 100 245Z" fill="#7EB0D5" fill-opacity="0.7"/>
<path d="M140 245C140 239.477 135.523 235 130 235C124.477 235 120 239.477 120 245C120 250.523 124.477 255 130 255C135.523 255 140 250.523 140 245Z" fill="#FD7F6F" fill-opacity="0.7"/>
<path d="M160 225C160 219.477 155.523 215 150 215C144.477 215 140 219.477 140 225C140 230.523 144.477 235 150 235C155.523 235 160 230.523 160 225Z" fill="#FD7F6F" fill-opacity="0.7"/>
<path d="M180 245C180 239.477 175.523 235 170 235C164.477 235 160 239.477 160 245C160 250.523 164.477 255 170 255C175.523 255 180 250.523 180 245Z" fill="#7EB0D5" fill-opacity="0.7"/>
<path d="M140 203C140 197.477 135.523 193 130 193C124.477 193 120 197.477 120 203C120 208.523 124.477 213 130 213C135.523 213 140 208.523 140 203Z" fill="#7EB0D5" fill-opacity="0.7"/>
<path d="M160 185C160 179.477 155.523 175 150 175C144.477 175 140 179.477 140 185C140 190.523 144.477 195 150 195C155.523 195 160 190.523 160 185Z" fill="#FFB55A" fill-opacity="0.7"/>
<path d="M220 165C220 159.477 215.523 155 210 155C204.477 155 200 159.477 200 165C200 170.523 204.477 175 210 175C215.523 175 220 170.523 220 165Z" fill="#FFB55A" fill-opacity="0.7"/>
<path d="M180 205C180 199.477 175.523 195 170 195C164.477 195 160 199.477 160 205C160 210.523 164.477 215 170 215C175.523 215 180 210.523 180 205Z" fill="#FD7F6F" fill-opacity="0.7"/>
<path d="M240 265C240 259.477 235.523 255 230 255C224.477 255 220 259.477 220 265C220 270.523 224.477 275 230 275C235.523 275 240 270.523 240 265Z" fill="#FD7F6F" fill-opacity="0.7"/>
<path d="M200 225C200 219.477 195.523 215 190 215C184.477 215 180 219.477 180 225C180 230.523 184.477 235 190 235C195.523 235 200 230.523 200 225Z" fill="#7EB0D5" fill-opacity="0.7"/>
<path d="M220 245C220 239.477 215.523 235 210 235C204.477 235 200 239.477 200 245C200 250.523 204.477 255 210 255C215.523 255 220 250.523 220 245Z" fill="#FFB55A" fill-opacity="0.7"/>
<path d="M200 185C200 179.477 195.523 175 190 175C184.477 175 180 179.477 180 185C180 190.523 184.477 195 190 195C195.523 195 200 190.523 200 185Z" fill="#FD7F6F" fill-opacity="0.7"/>
<path d="M240 185C240 179.477 235.523 175 230 175C224.477 175 220 179.477 220 185C220 190.523 224.477 195 230 195C235.523 195 240 190.523 240 185Z" fill="#7EB0D5" fill-opacity="0.7"/>
<path d="M220 205C220 199.477 215.523 195 210 195C204.477 195 200 199.477 200 205C200 210.523 204.477 215 210 215C215.523 215 220 210.523 220 205Z" fill="#7EB0D5" fill-opacity="0.7"/>
<path d="M276 265C276 259.477 271.523 255 266 255C260.477 255 256 259.477 256 265C256 270.523 260.477 275 266 275C271.523 275 276 270.523 276 265Z" fill="#FD7F6F" fill-opacity="0.7"/>
<path d="M296 245C296 239.477 291.523 235 286 235C280.477 235 276 239.477 276 245C276 250.523 280.477 255 286 255C291.523 255 296 250.523 296 245Z" fill="#FD7F6F" fill-opacity="0.7"/>
<path d="M316 265C316 259.477 311.523 255 306 255C300.477 255 296 259.477 296 265C296 270.523 300.477 275 306 275C311.523 275 316 270.523 316 265Z" fill="#7EB0D5" fill-opacity="0.7"/>
<path d="M276 223C276 217.477 271.523 213 266 213C260.477 213 256 217.477 256 223C256 228.523 260.477 233 266 233C271.523 233 276 228.523 276 223Z" fill="#7EB0D5" fill-opacity="0.7"/>
<path d="M296 205C296 199.477 291.523 195 286 195C280.477 195 276 199.477 276 205C276 210.523 280.477 215 286 215C291.523 215 296 210.523 296 205Z" fill="#FFB55A" fill-opacity="0.7"/>
<path d="M356 185C356 179.477 351.523 175 346 175C340.477 175 336 179.477 336 185C336 190.523 340.477 195 346 195C351.523 195 356 190.523 356 185Z" fill="#FFB55A" fill-opacity="0.7"/>
<path d="M316 225C316 219.477 311.523 215 306 215C300.477 215 296 219.477 296 225C296 230.523 300.477 235 306 235C311.523 235 316 230.523 316 225Z" fill="#FD7F6F" fill-opacity="0.7"/>
<path d="M376 285C376 279.477 371.523 275 366 275C360.477 275 356 279.477 356 285C356 290.523 360.477 295 366 295C371.523 295 376 290.523 376 285Z" fill="#FD7F6F" fill-opacity="0.7"/>
<path d="M336 245C336 239.477 331.523 235 326 235C320.477 235 316 239.477 316 245C316 250.523 320.477 255 326 255C331.523 255 336 250.523 336 245Z" fill="#7EB0D5" fill-opacity="0.7"/>
<path d="M356 265C356 259.477 351.523 255 346 255C340.477 255 336 259.477 336 265C336 270.523 340.477 275 346 275C351.523 275 356 270.523 356 265Z" fill="#FFB55A" fill-opacity="0.7"/>
<path d="M336 205C336 199.477 331.523 195 326 195C320.477 195 316 199.477 316 205C316 210.523 320.477 215 326 215C331.523 215 336 210.523 336 205Z" fill="#FD7F6F" fill-opacity="0.7"/>
<path d="M376 205C376 199.477 371.523 195 366 195C360.477 195 356 199.477 356 205C356 210.523 360.477 215 366 215C371.523 215 376 210.523 376 205Z" fill="#7EB0D5" fill-opacity="0.7"/>
<path d="M356 225C356 219.477 351.523 215 346 215C340.477 215 336 219.477 336 225C336 230.523 340.477 235 346 235C351.523 235 356 230.523 356 225Z" fill="#7EB0D5" fill-opacity="0.7"/>
<path d="M396 225C396 219.477 391.523 215 386 215C380.477 215 376 219.477 376 225C376 230.523 380.477 235 386 235C391.523 235 396 230.523 396 225Z" fill="#FD7F6F" fill-opacity="0.7"/>
<path d="M416 205C416 199.477 411.523 195 406 195C400.477 195 396 199.477 396 205C396 210.523 400.477 215 406 215C411.523 215 416 210.523 416 205Z" fill="#FD7F6F" fill-opacity="0.7"/>
<path d="M436 225C436 219.477 431.523 215 426 215C420.477 215 416 219.477 416 225C416 230.523 420.477 235 426 235C431.523 235 436 230.523 436 225Z" fill="#7EB0D5" fill-opacity="0.7"/>
<path d="M396 183C396 177.477 391.523 173 386 173C380.477 173 376 177.477 376 183C376 188.523 380.477 193 386 193C391.523 193 396 188.523 396 183Z" fill="#7EB0D5" fill-opacity="0.7"/>
<path d="M416 165C416 159.477 411.523 155 406 155C400.477 155 396 159.477 396 165C396 170.523 400.477 175 406 175C411.523 175 416 170.523 416 165Z" fill="#FFB55A" fill-opacity="0.7"/>
<path d="M476 145C476 139.477 471.523 135 466 135C460.477 135 456 139.477 456 145C456 150.523 460.477 155 466 155C471.523 155 476 150.523 476 145Z" fill="#FFB55A" fill-opacity="0.7"/>
<path d="M436 185C436 179.477 431.523 175 426 175C420.477 175 416 179.477 416 185C416 190.523 420.477 195 426 195C431.523 195 436 190.523 436 185Z" fill="#FD7F6F" fill-opacity="0.7"/>
<path d="M496 245C496 239.477 491.523 235 486 235C480.477 235 476 239.477 476 245C476 250.523 480.477 255 486 255C491.523 255 496 250.523 496 245Z" fill="#FD7F6F" fill-opacity="0.7"/>
<path d="M456 205C456 199.477 451.523 195 446 195C440.477 195 436 199.477 436 205C436 210.523 440.477 215 446 215C451.523 215 456 210.523 456 205Z" fill="#7EB0D5" fill-opacity="0.7"/>
<path d="M476 225C476 219.477 471.523 215 466 215C460.477 215 456 219.477 456 225C456 230.523 460.477 235 466 235C471.523 235 476 230.523 476 225Z" fill="#FFB55A" fill-opacity="0.7"/>
<path d="M456 165C456 159.477 451.523 155 446 155C440.477 155 436 159.477 436 165C436 170.523 440.477 175 446 175C451.523 175 456 170.523 456 165Z" fill="#FD7F6F" fill-opacity="0.7"/>
<path d="M496 165C496 159.477 491.523 155 486 155C480.477 155 476 159.477 476 165C476 170.523 480.477 175 486 175C491.523 175 496 170.523 496 165Z" fill="#7EB0D5" fill-opacity="0.7"/>
<path d="M476 185C476 179.477 471.523 175 466 175C460.477 175 456 179.477 456 185C456 190.523 460.477 195 466 195C471.523 195 476 190.523 476 185Z" fill="#7EB0D5" fill-opacity="0.7"/>
<path d="M475.579 30.9835C475.554 36.5063 480.011 41.0034 485.534 41.0281C491.057 41.0528 495.554 36.5957 495.579 31.0729C495.604 25.5501 491.147 21.053 485.624 21.0283C480.101 21.0036 475.604 25.4607 475.579 30.9835Z" fill="#FD7F6F" fill-opacity="0.7"/>
<path d="M455.49 50.8938C455.465 56.4166 459.922 60.9138 465.445 60.9384C470.968 60.9631 475.465 56.5061 475.49 50.9833C475.514 45.4605 471.057 40.9633 465.534 40.9386C460.012 40.914 455.515 45.371 455.49 50.8938Z" fill="#FD7F6F" fill-opacity="0.7"/>
<path d="M435.58 30.8046C435.555 36.3274 440.012 40.8245 445.535 40.8492C451.057 40.8739 455.555 36.4168 455.579 30.894C455.604 25.3712 451.147 20.8741 445.624 20.8494C440.101 20.8247 435.604 25.2818 435.58 30.8046Z" fill="#7EB0D5" fill-opacity="0.7"/>
<path d="M475.391 72.983C475.367 78.5058 479.824 83.003 485.346 83.0277C490.869 83.0524 495.366 78.5953 495.391 73.0725C495.416 67.5497 490.959 63.0526 485.436 63.0279C479.913 63.0032 475.416 67.4603 475.391 72.983Z" fill="#7EB0D5" fill-opacity="0.7"/>
<path d="M455.311 90.8934C455.286 96.4162 459.743 100.913 465.266 100.938C470.789 100.963 475.286 96.5057 475.311 90.9829C475.336 85.4601 470.878 80.9629 465.356 80.9382C459.833 80.9136 455.336 85.3706 455.311 90.8934Z" fill="#FFB55A" fill-opacity="0.7"/>
<path d="M395.222 110.625C395.197 116.148 399.655 120.645 405.177 120.67C410.7 120.694 415.197 116.237 415.222 110.714C415.247 105.192 410.79 100.694 405.267 100.67C399.744 100.645 395.247 105.102 395.222 110.625Z" fill="#FFB55A" fill-opacity="0.7"/>
<path d="M435.401 70.8042C435.376 76.327 439.833 80.8241 445.356 80.8488C450.879 80.8735 455.376 76.4164 455.4 70.8936C455.425 65.3708 450.968 60.8737 445.445 60.849C439.922 60.8243 435.425 65.2814 435.401 70.8042Z" fill="#FD7F6F" fill-opacity="0.7"/>
<path d="M375.67 10.5365C375.645 16.0593 380.102 20.5564 385.625 20.5811C391.148 20.6058 395.645 16.1487 395.669 10.6259C395.694 5.10314 391.237 0.606013 385.714 0.581316C380.191 0.55662 375.694 5.01371 375.67 10.5365Z" fill="#FD7F6F" fill-opacity="0.7"/>
<path d="M415.49 50.715C415.466 56.2378 419.923 60.7349 425.445 60.7596C430.968 60.7843 435.465 56.3272 435.49 50.8044C435.515 45.2816 431.058 40.7845 425.535 40.7598C420.012 40.7351 415.515 45.1922 415.49 50.715Z" fill="#7EB0D5" fill-opacity="0.7"/>
<path d="M395.58 30.6257C395.555 36.1485 400.012 40.6457 405.535 40.6703C411.058 40.695 415.555 36.238 415.58 30.7152C415.604 25.1924 411.147 20.6952 405.625 20.6705C400.102 20.6459 395.605 25.1029 395.58 30.6257Z" fill="#FFB55A" fill-opacity="0.7"/>
<path d="M415.311 90.7146C415.287 96.2374 419.744 100.734 425.267 100.759C430.789 100.784 435.287 96.3268 435.311 90.804C435.336 85.2812 430.879 80.7841 425.356 80.7594C419.833 80.7347 415.336 85.1918 415.311 90.7146Z" fill="#FD7F6F" fill-opacity="0.7"/>
<path d="M375.312 90.5357C375.287 96.0585 379.744 100.556 385.267 100.58C390.79 100.605 395.287 96.1479 395.312 90.6251C395.336 85.1023 390.879 80.6052 385.356 80.5805C379.834 80.5558 375.337 85.0129 375.312 90.5357Z" fill="#7EB0D5" fill-opacity="0.7"/>
<path d="M395.401 70.6253C395.376 76.1481 399.833 80.6453 405.356 80.6699C410.879 80.6946 415.376 76.2376 415.401 70.7148C415.426 65.192 410.968 60.6948 405.446 60.6701C399.923 60.6455 395.426 65.1025 395.401 70.6253Z" fill="#7EB0D5" fill-opacity="0.7"/>
<path d="M355.401 70.4465C355.377 75.9693 359.834 80.4664 365.357 80.4911C370.879 80.5158 375.377 76.0587 375.401 70.5359C375.426 65.0131 370.969 60.516 365.446 60.4913C359.923 60.4666 355.426 64.9237 355.401 70.4465Z" fill="#FD7F6F" fill-opacity="0.7"/>
<path d="M335.312 90.3568C335.288 95.8796 339.745 100.377 345.267 100.401C350.79 100.426 355.287 95.9691 355.312 90.4463C355.337 84.9235 350.88 80.4263 345.357 80.4016C339.834 80.377 335.337 84.834 335.312 90.3568Z" fill="#FD7F6F" fill-opacity="0.7"/>
<path d="M315.402 70.2676C315.377 75.7904 319.834 80.2875 325.357 80.3122C330.88 80.3369 335.377 75.8798 335.402 70.357C335.426 64.8342 330.969 60.3371 325.446 60.3124C319.924 60.2877 315.427 64.7448 315.402 70.2676Z" fill="#7EB0D5" fill-opacity="0.7"/>
<path d="M355.214 112.446C355.189 117.969 359.646 122.466 365.169 122.491C370.692 122.515 375.189 118.058 375.213 112.535C375.238 107.013 370.781 102.516 365.258 102.491C359.735 102.466 355.238 106.923 355.214 112.446Z" fill="#7EB0D5" fill-opacity="0.7"/>
<path d="M335.133 130.356C335.109 135.879 339.566 140.376 345.089 140.401C350.611 140.426 355.108 135.969 355.133 130.446C355.158 124.923 350.701 120.426 345.178 120.401C339.655 120.377 335.158 124.834 335.133 130.356Z" fill="#FFB55A" fill-opacity="0.7"/>
<path d="M275.045 150.088C275.02 155.611 279.477 160.108 285 160.133C290.522 160.157 295.02 155.7 295.044 150.177C295.069 144.655 290.612 140.157 285.089 140.133C279.566 140.108 275.069 144.565 275.045 150.088Z" fill="#FFB55A" fill-opacity="0.7"/>
<path d="M315.223 110.267C315.198 115.79 319.655 120.287 325.178 120.312C330.701 120.337 335.198 115.879 335.223 110.357C335.247 104.834 330.79 100.337 325.268 100.312C319.745 100.287 315.248 104.744 315.223 110.267Z" fill="#FD7F6F" fill-opacity="0.7"/>
<path d="M255.492 49.9995C255.467 55.5223 259.924 60.0194 265.447 60.0441C270.97 60.0688 275.467 55.6117 275.492 50.0889C275.516 44.5661 271.059 40.069 265.536 40.0443C260.014 40.0196 255.517 44.4767 255.492 49.9995Z" fill="#FD7F6F" fill-opacity="0.7"/>
<path d="M295.313 90.178C295.288 95.7008 299.745 100.198 305.268 100.223C310.791 100.247 315.288 95.7902 315.312 90.2674C315.337 84.7446 310.88 80.2475 305.357 80.2228C299.834 80.1981 295.337 84.6552 295.313 90.178Z" fill="#7EB0D5" fill-opacity="0.7"/>
<path d="M275.402 70.0887C275.378 75.6115 279.835 80.1087 285.357 80.1334C290.88 80.158 295.377 75.701 295.402 70.1782C295.427 64.6554 290.97 60.1582 285.447 60.1336C279.924 60.1089 275.427 64.5659 275.402 70.0887Z" fill="#FFB55A" fill-opacity="0.7"/>
<path d="M295.134 130.178C295.109 135.7 299.566 140.197 305.089 140.222C310.612 140.247 315.109 135.79 315.134 130.267C315.158 124.744 310.701 120.247 305.178 120.222C299.656 120.198 295.158 124.655 295.134 130.178Z" fill="#FD7F6F" fill-opacity="0.7"/>
<path d="M255.134 129.999C255.109 135.521 259.567 140.019 265.089 140.043C270.612 140.068 275.109 135.611 275.134 130.088C275.159 124.565 270.702 120.068 265.179 120.044C259.656 120.019 255.159 124.476 255.134 129.999Z" fill="#7EB0D5" fill-opacity="0.7"/>
<path d="M275.223 110.088C275.199 115.611 279.656 120.108 285.179 120.133C290.701 120.158 295.198 115.701 295.223 110.178C295.248 104.655 290.791 100.158 285.268 100.133C279.745 100.108 275.248 104.566 275.223 110.088Z" fill="#7EB0D5" fill-opacity="0.7"/>
</svg>
