<svg width="240" height="160" viewBox="0 0 240 160" fill="none" xmlns="http://www.w3.org/2000/svg">
<path d="M220 130C220 124.477 224.477 120 230 120C235.523 120 240 124.477 240 130C240 135.523 235.523 140 230 140C224.477 140 220 135.523 220 130Z" fill="#FD7F6F"/>
<path d="M200 110C200 104.477 204.477 100 210 100C215.523 100 220 104.477 220 110C220 115.523 215.523 120 210 120C204.477 120 200 115.523 200 110Z" fill="#FD7F6F"/>
<path d="M180 130C180 124.477 184.477 120 190 120C195.523 120 200 124.477 200 130C200 135.523 195.523 140 190 140C184.477 140 180 135.523 180 130Z" fill="#7EB0D5"/>
<path d="M220 88C220 82.4771 224.477 78 230 78C235.523 78 240 82.4771 240 88C240 93.5229 235.523 98 230 98C224.477 98 220 93.5229 220 88Z" fill="#7EB0D5"/>
<path d="M200 70C200 64.4771 204.477 60 210 60C215.523 60 220 64.4771 220 70C220 75.5229 215.523 80 210 80C204.477 80 200 75.5229 200 70Z" fill="#FFB55A"/>
<path d="M140 50C140 44.4772 144.477 40 150 40C155.523 40 160 44.4772 160 50C160 55.5228 155.523 60 150 60C144.477 60 140 55.5228 140 50Z" fill="#FFB55A"/>
<path d="M180 90C180 84.4771 184.477 80 190 80C195.523 80 200 84.4771 200 90C200 95.5229 195.523 100 190 100C184.477 100 180 95.5229 180 90Z" fill="#FD7F6F"/>
<path d="M120 150C120 144.477 124.477 140 130 140C135.523 140 140 144.477 140 150C140 155.523 135.523 160 130 160C124.477 160 120 155.523 120 150Z" fill="#FD7F6F"/>
<path d="M160 110C160 104.477 164.477 100 170 100C175.523 100 180 104.477 180 110C180 115.523 175.523 120 170 120C164.477 120 160 115.523 160 110Z" fill="#7EB0D5"/>
<path d="M140 130C140 124.477 144.477 120 150 120C155.523 120 160 124.477 160 130C160 135.523 155.523 140 150 140C144.477 140 140 135.523 140 130Z" fill="#FFB55A"/>
<path d="M160 70C160 64.4771 164.477 60 170 60C175.523 60 180 64.4771 180 70C180 75.5229 175.523 80 170 80C164.477 80 160 75.5229 160 70Z" fill="#FD7F6F"/>
<path d="M120 70C120 64.4771 124.477 60 130 60C135.523 60 140 64.4771 140 70C140 75.5229 135.523 80 130 80C124.477 80 120 75.5229 120 70Z" fill="#7EB0D5"/>
<path d="M140 90C140 84.4771 144.477 80 150 80C155.523 80 160 84.4771 160 90C160 95.5229 155.523 100 150 100C144.477 100 140 95.5229 140 90Z" fill="#7EB0D5"/>
<path d="M100 90C100 84.4771 104.477 80 110 80C115.523 80 120 84.4771 120 90C120 95.5229 115.523 100 110 100C104.477 100 100 95.5229 100 90Z" fill="#FD7F6F"/>
<path d="M80 70C80 64.4771 84.4771 60 90 60C95.5229 60 100 64.4771 100 70C100 75.5229 95.5229 80 90 80C84.4771 80 80 75.5229 80 70Z" fill="#FD7F6F"/>
<path d="M60 90C60 84.4771 64.4771 80 70 80C75.5229 80 80 84.4771 80 90C80 95.5229 75.5229 100 70 100C64.4771 100 60 95.5229 60 90Z" fill="#7EB0D5"/>
<path d="M100 48C100 42.4772 104.477 38 110 38C115.523 38 120 42.4772 120 48C120 53.5228 115.523 58 110 58C104.477 58 100 53.5228 100 48Z" fill="#7EB0D5"/>
<path d="M80 30C80 24.4772 84.4771 20 90 20C95.5229 20 100 24.4772 100 30C100 35.5228 95.5229 40 90 40C84.4771 40 80 35.5228 80 30Z" fill="#FFB55A"/>
<path d="M20 10C20 4.47715 24.4772 0 30 0C35.5228 0 40 4.47715 40 10C40 15.5228 35.5228 20 30 20C24.4772 20 20 15.5228 20 10Z" fill="#FFB55A"/>
<path d="M60 50C60 44.4772 64.4771 40 70 40C75.5229 40 80 44.4772 80 50C80 55.5228 75.5229 60 70 60C64.4771 60 60 55.5228 60 50Z" fill="#FD7F6F"/>
<path d="M0 110C0 104.477 4.47715 100 10 100C15.5228 100 20 104.477 20 110C20 115.523 15.5228 120 10 120C4.47715 120 0 115.523 0 110Z" fill="#FD7F6F"/>
<path d="M40 70C40 64.4771 44.4772 60 50 60C55.5228 60 60 64.4771 60 70C60 75.5229 55.5228 80 50 80C44.4772 80 40 75.5229 40 70Z" fill="#7EB0D5"/>
<path d="M20 90C20 84.4771 24.4772 80 30 80C35.5228 80 40 84.4771 40 90C40 95.5229 35.5228 100 30 100C24.4772 100 20 95.5229 20 90Z" fill="#FFB55A"/>
<path d="M40 30C40 24.4772 44.4772 20 50 20C55.5228 20 60 24.4772 60 30C60 35.5228 55.5228 40 50 40C44.4772 40 40 35.5228 40 30Z" fill="#FD7F6F"/>
<path d="M0 30C0 24.4772 4.47715 20 10 20C15.5228 20 20 24.4772 20 30C20 35.5228 15.5228 40 10 40C4.47715 40 0 35.5228 0 30Z" fill="#7EB0D5"/>
<path d="M20 50C20 44.4772 24.4772 40 30 40C35.5228 40 40 44.4772 40 50C40 55.5228 35.5228 60 30 60C24.4772 60 20 55.5228 20 50Z" fill="#7EB0D5"/>
</svg>
