<svg width="240" height="160" viewBox="0 0 240 160" fill="none" xmlns="http://www.w3.org/2000/svg">
<circle cx="10" cy="10" r="10" transform="matrix(1 0 0 -1 0 140)" fill="#FD7F6F"/>
<circle cx="10" cy="10" r="10" transform="matrix(1 0 0 -1 20 120)" fill="#FD7F6F"/>
<circle cx="10" cy="10" r="10" transform="matrix(1 0 0 -1 40 140)" fill="#7EB0D5"/>
<circle cx="10" cy="10" r="10" transform="matrix(1 0 0 -1 0 98)" fill="#7EB0D5"/>
<circle cx="10" cy="10" r="10" transform="matrix(1 0 0 -1 20 80)" fill="#FFB55A"/>
<circle cx="10" cy="10" r="10" transform="matrix(1 0 0 -1 80 60)" fill="#FFB55A"/>
<circle cx="10" cy="10" r="10" transform="matrix(1 0 0 -1 40 100)" fill="#FD7F6F"/>
<circle cx="10" cy="10" r="10" transform="matrix(1 0 0 -1 100 160)" fill="#FD7F6F"/>
<circle cx="10" cy="10" r="10" transform="matrix(1 0 0 -1 60 120)" fill="#7EB0D5"/>
<circle cx="10" cy="10" r="10" transform="matrix(1 0 0 -1 80 140)" fill="#FFB55A"/>
<circle cx="10" cy="10" r="10" transform="matrix(1 0 0 -1 60 80)" fill="#FD7F6F"/>
<circle cx="10" cy="10" r="10" transform="matrix(1 0 0 -1 100 80)" fill="#7EB0D5"/>
<circle cx="10" cy="10" r="10" transform="matrix(1 0 0 -1 80 100)" fill="#7EB0D5"/>
<circle cx="10" cy="10" r="10" transform="matrix(1 0 0 -1 120 100)" fill="#FD7F6F"/>
<circle cx="10" cy="10" r="10" transform="matrix(1 0 0 -1 140 80)" fill="#FD7F6F"/>
<circle cx="10" cy="10" r="10" transform="matrix(1 0 0 -1 160 100)" fill="#7EB0D5"/>
<circle cx="10" cy="10" r="10" transform="matrix(1 0 0 -1 120 58)" fill="#7EB0D5"/>
<circle cx="10" cy="10" r="10" transform="matrix(1 0 0 -1 140 40)" fill="#FFB55A"/>
<circle cx="10" cy="10" r="10" transform="matrix(1 0 0 -1 200 20)" fill="#FFB55A"/>
<circle cx="10" cy="10" r="10" transform="matrix(1 0 0 -1 160 60)" fill="#FD7F6F"/>
<circle cx="10" cy="10" r="10" transform="matrix(1 0 0 -1 220 120)" fill="#FD7F6F"/>
<circle cx="10" cy="10" r="10" transform="matrix(1 0 0 -1 180 80)" fill="#7EB0D5"/>
<circle cx="10" cy="10" r="10" transform="matrix(1 0 0 -1 200 100)" fill="#FFB55A"/>
<circle cx="10" cy="10" r="10" transform="matrix(1 0 0 -1 180 40)" fill="#FD7F6F"/>
<circle cx="10" cy="10" r="10" transform="matrix(1 0 0 -1 220 40)" fill="#7EB0D5"/>
<circle cx="10" cy="10" r="10" transform="matrix(1 0 0 -1 200 60)" fill="#7EB0D5"/>
</svg>
